<?xml version="1.0" standalone="no"?>
<!DOCTYPE svg PUBLIC "-//W3C//DTD SVG 20010904//EN"
 "http://www.w3.org/TR/2001/REC-SVG-20010904/DTD/svg10.dtd">
<svg version="1.0" xmlns="http://www.w3.org/2000/svg"
 width="1200.000000pt" height="1200.000000pt" viewBox="0 0 1200.000000 1200.000000"
 preserveAspectRatio="xMidYMid meet">

<g transform="translate(0.000000,1200.000000) scale(0.100000,-0.100000)"
fill="#000000" stroke="none">
<path d="M2098 9403 c-141 -3 -188 -7 -187 -16 0 -6 75 -210 167 -452 l167
-440 186 -3 c133 -2 190 -6 196 -15 10 -12 259 -669 265 -697 3 -13 -25 -16
-182 -20 l-185 -5 657 -1740 c362 -957 661 -1752 664 -1767 l6 -28 -184 -2
-185 -3 49 -130 c27 -71 87 -232 135 -357 l85 -228 191 -2 191 -3 171 -455
172 -455 1711 -3 1710 -2 16 42 c9 24 86 230 170 458 l154 415 -188 5 -187 5
132 355 132 355 190 3 191 2 10 28 c30 85 1284 3458 1296 3487 l15 35 188 0
188 0 129 348 c71 191 131 353 133 360 4 9 -37 12 -185 12 l-189 0 168 453
c93 248 169 455 169 460 0 9 -2598 10 -2991 0 l-284 -6 -133 -431 c-73 -237
-135 -441 -138 -453 l-6 -23 186 0 c102 0 186 -3 186 -7 0 -18 -214 -699 -223
-710 -7 -10 -58 -13 -193 -13 l-183 0 -25 -77 c-13 -43 -153 -496 -311 -1008
-158 -511 -290 -934 -294 -938 -7 -7 -191 564 -191 593 0 8 41 148 91 311 l91
296 -126 404 c-69 222 -126 410 -126 417 0 9 44 12 186 12 145 0 185 3 182 13
-3 6 -54 168 -113 359 l-109 348 -190 2 -191 3 -106 340 c-59 187 -124 393
-144 458 l-36 117 -1477 -2 c-812 -2 -1561 -4 -1664 -5z"/>
</g>
</svg>
